<?xml version="1.0" encoding="UTF-8"?>
<!DOCTYPE svg PUBLIC "-//W3C//DTD SVG 1.1//EN" "http://www.w3.org/Graphics/SVG/1.1/DTD/svg11.dtd">
<!-- Creator: CorelDRAW X7 -->
<svg xmlns="http://www.w3.org/2000/svg" xml:space="preserve" width="2.57924in" height="2.57924in" version="1.1" style="shape-rendering:geometricPrecision; text-rendering:geometricPrecision; image-rendering:optimizeQuality; fill-rule:evenodd; clip-rule:evenodd"
viewBox="0 0 2579 2579"
 xmlns:xlink="http://www.w3.org/1999/xlink">
 <g id="Layer_x0020_1">
  <metadata id="CorelCorpID_0Corel-Layer"/>
  <path fill="#00ff00" d="M0 151c0,106 29,117 107,195 92,92 917,925 946,944 -19,29 -895,897 -1012,1013 -25,25 -38,56 -41,88l0 34c8,79 69,154 141,154 116,0 113,-14 208,-109 91,-92 911,-919 941,-939 28,19 846,844 938,936 96,97 93,112 210,112 22,0 39,-8 54,-16 66,-37 87,-89 87,-165 0,-68 -70,-123 -107,-160 -92,-92 -927,-920 -946,-948 31,-21 103,-101 135,-133l809 -808c79,-79 109,-91 109,-198 0,-77 -86,-151 -161,-151 -92,0 -125,52 -172,99 -47,47 -90,90 -137,137 -47,47 -794,800 -819,817 -29,-19 -861,-858 -954,-951 -45,-45 -83,-102 -170,-102 -85,0 -166,77 -166,151z"/>
 </g>
</svg>
