<?xml version="1.0" encoding="UTF-8"?>
<!DOCTYPE svg PUBLIC "-//W3C//DTD SVG 1.1//EN" "http://www.w3.org/Graphics/SVG/1.1/DTD/svg11.dtd">
<!-- Creator: CorelDRAW X7 -->
<svg xmlns="http://www.w3.org/2000/svg" xml:space="preserve" width="1.9685in" height="3.60628in" version="1.1" style="shape-rendering:geometricPrecision; text-rendering:geometricPrecision; image-rendering:optimizeQuality; fill-rule:evenodd; clip-rule:evenodd"
viewBox="0 0 1969 3606"
 xmlns:xlink="http://www.w3.org/1999/xlink">
 <g id="Layer_x0020_1">
  <metadata id="CorelCorpID_0Corel-Layer"/>
  <path fill="#00ff00" d="M0 143c0,128 66,153 172,259 431,432 868,861 1292,1300l52 50c15,14 11,10 27,25 17,15 10,5 25,26l-1391 1396c-107,107 -177,135 -177,264 0,74 71,143 184,143 89,0 399,-342 474,-417l1112 -1112c318,-318 260,-287 -220,-768l-1112 -1112c-110,-110 -164,-197 -295,-197 -64,0 -143,79 -143,143z"/>
 </g>
</svg>
